<svg id="visual" viewBox="0 0 900 600" width="900" height="600" xmlns="http://www.w3.org/2000/svg" xmlns:xlink="http://www.w3.org/1999/xlink" version="1.1"><rect x="0" y="0" width="900" height="600" fill="#FFFFFF"></rect><defs><linearGradient id="grad1_0" x1="33.3%" y1="0%" x2="100%" y2="100%"><stop offset="20%" stop-color="#ffffff" stop-opacity="1"></stop><stop offset="80%" stop-color="#ffffff" stop-opacity="1"></stop></linearGradient></defs><defs><linearGradient id="grad2_0" x1="0%" y1="0%" x2="66.7%" y2="100%"><stop offset="20%" stop-color="#ffffff" stop-opacity="1"></stop><stop offset="80%" stop-color="#ffffff" stop-opacity="1"></stop></linearGradient></defs><g transform="translate(900, 0)"><path d="M0 297.5C-40 294.3 -80.1 291.2 -113.8 274.8C-147.6 258.4 -175.1 228.7 -199.4 199.4C-223.7 170.1 -244.7 141.1 -260.5 107.9C-276.3 74.7 -286.9 37.4 -297.5 0L0 0Z" fill="#6600FF"></path></g><g transform="translate(0, 600)"><path d="M0 -297.5C35.8 -286.6 71.6 -275.7 109.1 -263.3C146.6 -251 185.8 -237.2 210.3 -210.3C234.9 -183.5 244.8 -143.6 256.8 -106.4C268.9 -69.2 283.2 -34.6 297.5 0L0 0Z" fill="#6600FF"></path></g></svg>