<svg id="visual" viewBox="0 0 900 600" width="900" height="600" xmlns="http://www.w3.org/2000/svg" xmlns:xlink="http://www.w3.org/1999/xlink" version="1.1"><rect x="0" y="0" width="900" height="600" fill="#FFFFFF"></rect><path d="M0 119L21.5 132.2C43 145.3 86 171.7 128.8 170.3C171.7 169 214.3 140 257.2 128.5C300 117 343 123 385.8 140.2C428.7 157.3 471.3 185.7 514.2 199.5C557 213.3 600 212.7 642.8 192.5C685.7 172.3 728.3 132.7 771.2 126.7C814 120.7 857 148.3 878.5 162.2L900 176L900 0L878.5 0C857 0 814 0 771.2 0C728.3 0 685.7 0 642.8 0C600 0 557 0 514.2 0C471.3 0 428.7 0 385.8 0C343 0 300 0 257.2 0C214.3 0 171.7 0 128.8 0C86 0 43 0 21.5 0L0 0Z" fill="#715DF2" stroke-linecap="round" stroke-linejoin="miter"></path></svg>