<svg id="visual" viewBox="0 0 900 600" width="900" height="600" xmlns="http://www.w3.org/2000/svg" xmlns:xlink="http://www.w3.org/1999/xlink" version="1.1"><rect x="0" y="0" width="900" height="600" fill="#FFFFFF"></rect><path d="M267 0L257.7 14.3C248.3 28.7 229.7 57.3 219 85.8C208.3 114.3 205.7 142.7 217.5 171.2C229.3 199.7 255.7 228.3 260.7 257C265.7 285.7 249.3 314.3 246 343C242.7 371.7 252.3 400.3 255.2 428.8C258 457.3 254 485.7 253.2 514.2C252.3 542.7 254.7 571.3 255.8 585.7L257 600L0 600L0 585.7C0 571.3 0 542.7 0 514.2C0 485.7 0 457.3 0 428.8C0 400.3 0 371.7 0 343C0 314.3 0 285.7 0 257C0 228.3 0 199.7 0 171.2C0 142.7 0 114.3 0 85.8C0 57.3 0 28.7 0 14.3L0 0Z" fill="#6600FF" stroke-linecap="round" stroke-linejoin="miter"></path></svg>