<svg id="visual" viewBox="0 0 900 600" width="900" height="600" xmlns="http://www.w3.org/2000/svg" xmlns:xlink="http://www.w3.org/1999/xlink" version="1.1"><rect x="0" y="0" width="900" height="600" fill="#FFFFFF"></rect><path d="M397 600L389 575C381 550 365 500 368.5 450C372 400 395 350 422.8 300C450.7 250 483.3 200 476.5 150C469.7 100 423.3 50 400.2 25L377 0L900 0L900 25C900 50 900 100 900 150C900 200 900 250 900 300C900 350 900 400 900 450C900 500 900 550 900 575L900 600Z" fill="#715DF2" stroke-linecap="round" stroke-linejoin="miter"></path></svg>