<svg id="visual" viewBox="0 0 900 600" width="900" height="600" xmlns="http://www.w3.org/2000/svg" xmlns:xlink="http://www.w3.org/1999/xlink" version="1.1"><path d="M0 85L82 151L164 91L245 259L327 259L409 277L491 241L573 103L655 211L736 139L818 133L900 85L900 0L818 0L736 0L655 0L573 0L491 0L409 0L327 0L245 0L164 0L82 0L0 0Z" fill="#ffffff"></path><path d="M0 121L82 253L164 187L245 313L327 331L409 337L491 295L573 181L655 265L736 223L818 187L900 163L900 83L818 131L736 137L655 209L573 101L491 239L409 275L327 257L245 257L164 89L82 149L0 83Z" fill="#e1d5fd"></path><path d="M0 223L82 319L164 295L245 379L327 379L409 451L491 379L573 265L655 373L736 325L818 277L900 253L900 161L818 185L736 221L655 263L573 179L491 293L409 335L327 329L245 311L164 185L82 251L0 119Z" fill="#c1acfa"></path><path d="M0 385L82 463L164 379L245 439L327 463L409 499L491 451L573 379L655 523L736 409L818 397L900 409L900 251L818 275L736 323L655 371L573 263L491 377L409 449L327 377L245 377L164 293L82 317L0 221Z" fill="#9d84f6"></path><path d="M0 601L82 601L164 601L245 601L327 601L409 601L491 601L573 601L655 601L736 601L818 601L900 601L900 407L818 395L736 407L655 521L573 377L491 449L409 497L327 461L245 437L164 377L82 461L0 383Z" fill="#715df2"></path></svg>